<?xml version="1.0" encoding="utf-8"?>
<!-- Generator: Adobe Illustrator 27.1.0, SVG Export Plug-In . SVG Version: 6.00 Build 0)  -->
<svg version="1.1" id="Layer_1" xmlns="http://www.w3.org/2000/svg" xmlns:xlink="http://www.w3.org/1999/xlink" x="0px" y="0px"
	 viewBox="0 0 150 150" style="enable-background:new 0 0 150 150;" xml:space="preserve">
<style type="text/css">
	.st0{fill:#2C3E50;}
	.st1{fill:#FFFFFF;}
</style>
<path class="st0" d="M136.76,35.5l3.87-2.23c1.14-0.66,1.7-2.01,1.36-3.28c-1.38-5.16-4.11-9.78-7.78-13.45
	c-0.93-0.93-2.38-1.12-3.52-0.46l-3.86,2.23c-1.25-0.9-2.59-1.67-3.99-2.31v-4.46c0-1.32-0.89-2.48-2.17-2.82
	c-5.07-1.35-10.46-1.35-15.53,0c-1.28,0.34-2.17,1.5-2.17,2.82v4.46c-1.4,0.64-2.74,1.41-3.99,2.31l-3.86-2.23
	c-1.14-0.66-2.59-0.47-3.52,0.46c-3.67,3.67-6.39,8.29-7.78,13.45c-0.34,1.28,0.21,2.62,1.36,3.28l3.87,2.23
	c-0.15,1.53-0.15,3.08,0,4.61l-3.87,2.23c-1.14,0.66-1.7,2.01-1.36,3.28c1.38,5.16,4.11,9.78,7.78,13.45
	c0.93,0.93,2.38,1.12,3.52,0.46l3.86-2.23c1.25,0.9,2.59,1.67,3.99,2.31v4.46c0,1.32,0.89,2.48,2.17,2.82
	c5.07,1.35,10.46,1.35,15.53,0c1.28-0.34,2.17-1.5,2.17-2.82v-4.46c1.4-0.64,2.74-1.41,3.99-2.31l3.86,2.23
	c1.14,0.66,2.59,0.47,3.52-0.46c3.67-3.67,6.39-8.29,7.78-13.45c0.34-1.28-0.21-2.62-1.36-3.28l-3.87-2.23
	C136.91,38.58,136.91,37.04,136.76,35.5z M130.36,43.15l5.32,3.07c-0.96,2.58-2.35,4.99-4.11,7.11l-5.32-3.07
	c-3.88,3.33-4.45,3.65-9.25,5.35v6.14c-2.72,0.46-5.49,0.46-8.21,0V55.6c-4.8-1.69-5.37-2.02-9.25-5.35l-5.32,3.07
	c-1.76-2.12-3.15-4.52-4.11-7.11l5.32-3.07c-0.93-5.01-0.93-5.67,0-10.69l-5.32-3.07c0.95-2.58,2.34-4.98,4.11-7.11l5.32,3.07
	c3.88-3.33,4.45-3.65,9.25-5.35v-6.14c2.72-0.46,5.49-0.46,8.21,0v6.14c4.8,1.69,5.37,2.02,9.25,5.35l5.32-3.07
	c1.76,2.12,3.15,4.52,4.11,7.11l-5.32,3.07C131.29,37.48,131.29,38.13,130.36,43.15L130.36,43.15z"/>
<g>
	<path class="st0" d="M42.34,29.41c12.31-8.95,27.63-8.17,38.15-4.51c1.41-2.38,3.11-4.55,5.07-6.47
		c-16.11-6.63-34.81-4.85-47.85,4.63c-11.97,8.71-15.86,18.73-17.02,25.6c-0.59,3.52-0.63,7.13-0.12,10.76
		c0.21,1.48,0.1,2.88-0.32,4.16c-0.35,1.05-0.82,1.77-1.17,2.29c-1.9,2.87-4.11,6.01-6.58,9.34l-0.21,0.29l-0.16,0.32
		c-1.48,3-1.59,5.62-0.34,7.79c1.12,1.94,2.84,2.63,4.09,3.14c0.32,0.13,0.69,0.28,1.09,0.47c1.71,0.8,3.41,2.1,4.06,3.07
		c0.08,0.32,0.09,1.56,0.1,2.88c0.01,0.66,0.01,1.42,0.03,2.31c0.15,9.32,0.76,11.89,2.06,14.13c1.3,2.22,3.15,4.09,5.52,5.55
		c2.02,1.25,3.59,1.6,5.42,2c1.08,0.24,2.43,0.54,4.34,1.13l0.23,0.07c1.89,0.58,3.84,1.18,4.24,1.47c1.06,1.04,1.41,4.96,1.53,7.2
		c0.21,4.06-0.01,8.21-0.67,12.34l7.77,1.23c0.74-4.67,0.99-9.37,0.75-13.98c-0.42-7.96-2.1-10.66-3.86-12.39
		c-1.62-1.59-3.69-2.23-7.45-3.38l-0.23-0.07c-2.21-0.68-3.79-1.03-4.95-1.28c-1.66-0.37-2.13-0.49-2.98-1.01
		c-1.26-0.78-2.23-1.74-2.87-2.84c-0.25-0.43-0.85-1.45-0.99-10.28c-0.01-0.87-0.02-1.61-0.03-2.26c-0.03-3.43-0.04-5-1.36-7.05
		c-2.14-3.35-6.15-5.4-7.32-5.96c-0.45-0.21-0.87-0.39-1.24-0.54c2.46-3.32,4.67-6.46,6.57-9.35c0.49-0.74,1.4-2.12,2.08-4.17
		c0.8-2.44,1.02-5.04,0.64-7.72c-0.4-2.82-0.36-5.63,0.09-8.35C29.37,44.53,32.52,36.56,42.34,29.41z"/>
	<path class="st0" d="M107.58,72.34c-1.07,0-2.13-0.05-3.17-0.16c-0.51,1.17-1.11,2.32-1.94,3.9c-1.51,2.9-3.59,6.86-6.94,14.34
		c-1.47,3.29-2.95,6.74-3.48,8.06c-4.18,10.4-3.81,24.77,1.11,42.71l7.59-2.08c-4.39-16.02-4.87-29.06-1.39-37.7
		c0.44-1.09,1.85-4.4,3.36-7.78c3.25-7.26,5.26-11.11,6.73-13.92c1.28-2.45,2.21-4.22,3.06-6.62c0.14-0.41,0.28-0.82,0.41-1.22
		C111.17,72.18,109.39,72.34,107.58,72.34z"/>
</g>
<g>
	<g>
		<rect x="106.51" y="27.2" class="st0" width="4" height="20.81"/>
	</g>
	<path class="st0" d="M108.51,28.95c-2.42,0-4.39,1.97-4.39,4.39c0,2.42,1.97,4.39,4.39,4.39s4.39-1.97,4.39-4.39
		C112.9,30.92,110.93,28.95,108.51,28.95z M108.51,35.53c-1.21,0-2.19-0.98-2.19-2.19c0-1.21,0.98-2.19,2.19-2.19
		s2.19,0.98,2.19,2.19C110.71,34.54,109.72,35.53,108.51,35.53z"/>
	<circle class="st1" cx="108.51" cy="33.33" r="2.19"/>
</g>
<g>
	<g>
		<rect x="118.15" y="27.2" class="st0" width="4" height="20.81"/>
	</g>
	<path class="st0" d="M120.15,36.96c-2.42,0-4.39,1.97-4.39,4.39c0,2.42,1.97,4.39,4.39,4.39s4.39-1.97,4.39-4.39
		C124.53,38.93,122.57,36.96,120.15,36.96z M120.15,43.54c-1.21,0-2.19-0.98-2.19-2.19c0-1.21,0.98-2.19,2.19-2.19
		c1.21,0,2.19,0.98,2.19,2.19C122.34,42.55,121.36,43.54,120.15,43.54z"/>
	<circle class="st1" cx="120.15" cy="41.35" r="2.19"/>
</g>
<g>
</g>
<g>
</g>
<g>
</g>
<g>
</g>
<g>
</g>
<g>
</g>
<g>
</g>
<g>
</g>
<g>
</g>
<g>
</g>
<g>
</g>
<g>
</g>
<g>
</g>
<g>
</g>
<g>
</g>
</svg>
