<?xml version="1.0" encoding="utf-8"?>
<!-- Generator: Adobe Illustrator 26.0.1, SVG Export Plug-In . SVG Version: 6.00 Build 0)  -->
<svg version="1.1" id="Layer_1" xmlns="http://www.w3.org/2000/svg" xmlns:xlink="http://www.w3.org/1999/xlink" x="0px" y="0px"
	 viewBox="0 0 400 400" style="enable-background:new 0 0 400 400;" xml:space="preserve">
<style type="text/css">
	.st0{fill:#5A8FFF;}
	.st1{fill:none;stroke:#2C3E50;stroke-width:3;stroke-miterlimit:10;}
	.st2{fill:#FFFFFF;stroke:#2C3E50;stroke-width:3;stroke-miterlimit:10;enable-background:new    ;}
	.st3{fill:#FFFFFF;stroke:#2C3E50;stroke-width:3;stroke-miterlimit:10;}
</style>
<path class="st0" d="M244.22,116.8c0.7-0.56,1.74-0.04,1.74,0.84v36.62c0,4.75-3.85,8.6-8.6,8.6h-74.5c-4.75,0-8.6-3.85-8.6-8.6
	v-36.61c0-0.9,1.02-1.4,1.74-0.84c4.01,3.12,9.33,7.07,27.6,20.35c3.78,2.76,10.15,8.56,16.51,8.52c6.39,0.05,12.89-5.87,16.53-8.52
	C234.91,123.89,240.21,119.92,244.22,116.8z M200.11,139.94c4.16,0.07,10.14-5.23,13.15-7.41c23.77-17.25,25.57-18.75,31.06-23.05
	c1.04-0.81,1.65-2.06,1.65-3.38v-3.4c0-4.75-3.85-8.6-8.6-8.6h-74.5c-4.75,0-8.6,3.85-8.6,8.6v3.4c0,1.33,0.61,2.56,1.65,3.38
	c5.48,4.28,7.29,5.8,31.06,23.05C189.97,134.71,195.95,140.01,200.11,139.94L200.11,139.94z"/>
<circle class="st1" cx="200" cy="200" r="155.43"/>
<g>
	<path class="st2" d="M141.5,242.39c9.39,0,17-7.61,17-17c0-9.39-7.61-17-17-17s-17,7.61-17,17
		C124.51,234.78,132.11,242.38,141.5,242.39z M269,250.89h-17c-4.49,0-8.8,1.77-11.98,4.94c10.91,5.94,18.33,16.74,19.95,29.06
		h17.53c4.69,0,8.5-3.81,8.5-8.5v-8.5C285.99,258.51,278.39,250.9,269,250.89z M133,250.89c-9.39,0.01-16.99,7.61-17,17v8.5
		c0,4.69,3.81,8.5,8.5,8.5H142c1.64-12.32,9.06-23.11,19.98-29.06c-3.18-3.17-7.49-4.95-11.98-4.94H133z M260.5,242.39
		c9.39,0,17-7.61,17-17c0-9.39-7.61-17-17-17c-9.39,0-17,7.61-17,17C243.51,234.78,251.11,242.38,260.5,242.39z"/>
	<path class="st3" d="M221.4,259.39h-2.2c-5.67,2.77-11.89,4.22-18.2,4.25c-6.53,0-12.64-1.59-18.2-4.25h-2.2
		c-16.9,0-30.6,13.7-30.6,30.6v7.65c0,7.04,5.71,12.75,12.75,12.75h76.5c7.04,0,12.75-5.71,12.75-12.75v-7.65
		C252,273.1,238.3,259.4,221.4,259.39z M201,250.89c16.43,0,29.75-13.32,29.75-29.75s-13.32-29.75-29.75-29.75
		s-29.75,13.32-29.75,29.75c-0.01,16.42,13.3,29.74,29.72,29.75C200.98,250.89,200.99,250.89,201,250.89z"/>
</g>
<g>
</g>
<g>
</g>
<g>
</g>
<g>
</g>
<g>
</g>
<g>
</g>
<g>
</g>
<g>
</g>
<g>
</g>
<g>
</g>
<g>
</g>
<g>
</g>
<g>
</g>
<g>
</g>
<g>
</g>
</svg>
