<?xml version="1.0" encoding="utf-8"?>
<!-- Generator: Adobe Illustrator 25.0.1, SVG Export Plug-In . SVG Version: 6.00 Build 0)  -->
<svg version="1.1" id="Layer_1" xmlns="http://www.w3.org/2000/svg" xmlns:xlink="http://www.w3.org/1999/xlink" x="0px" y="0px"
	 viewBox="0 0 65 65" style="enable-background:new 0 0 65 65;" xml:space="preserve">
<style type="text/css">
	.st0{fill:none;stroke:#2C3E50;stroke-width:0.5;stroke-miterlimit:10;}
	.st1{fill:#5A8FFF;enable-background:new    ;}
	.st2{fill:none;stroke:#FFFFFF;stroke-width:0.5;stroke-miterlimit:10;}
</style>
<g>
	<path class="st0" d="M41.4,52.6h-36c-1.2,0-2.1-1-2.1-2.1V15.2c0-1.2,1-2.1,2.1-2.1h48.8c1.2,0,2.1,1,2.1,2.1V35"/>
	<line class="st0" x1="3" y1="21.8" x2="56.2" y2="21.8"/>
	<line class="st0" x1="12.9" y1="11" x2="12.9" y2="14.9"/>
	<line class="st0" x1="46.7" y1="11" x2="46.7" y2="14.9"/>
	<g>
		<path class="st1" d="M16.2,32.9H8.5c-0.2,0-0.3-0.2-0.3-0.3V27c0-0.2,0.2-0.3,0.3-0.3h7.7c0.2,0,0.3,0.2,0.3,0.3v5.6
			C16.5,32.7,16.4,32.9,16.2,32.9z"/>
	</g>
	<g>
		<circle class="st1" cx="52.3" cy="47.3" r="10.9"/>
		<polyline class="st2" points="51.6,41.9 51.6,49 57.2,49 		"/>
	</g>
	<g>
		<line class="st0" x1="28.7" y1="29.8" x2="32.4" y2="29.8"/>
		<line class="st0" x1="46.1" y1="29.8" x2="49.8" y2="29.8"/>
	</g>
	<g>
		<line class="st0" x1="10.6" y1="44.9" x2="14.3" y2="44.9"/>
		<line class="st0" x1="28" y1="44.9" x2="31.7" y2="44.9"/>
	</g>
</g>
<g>
</g>
<g>
</g>
<g>
</g>
<g>
</g>
<g>
</g>
<g>
</g>
<g>
</g>
<g>
</g>
<g>
</g>
<g>
</g>
<g>
</g>
<g>
</g>
<g>
</g>
<g>
</g>
<g>
</g>
</svg>
