<?xml version="1.0" encoding="utf-8"?>
<!-- Generator: Adobe Illustrator 25.0.1, SVG Export Plug-In . SVG Version: 6.00 Build 0)  -->
<svg version="1.1" id="Layer_1" xmlns="http://www.w3.org/2000/svg" xmlns:xlink="http://www.w3.org/1999/xlink" x="0px" y="0px"
	 viewBox="0 0 65 65" style="enable-background:new 0 0 65 65;" xml:space="preserve">
<style type="text/css">
	.st0{fill:none;stroke:#2C3E50;stroke-width:0.5;stroke-miterlimit:10;enable-background:new    ;}
	.st1{fill:none;stroke:#2C3E50;stroke-width:0.5;stroke-miterlimit:10;}
	.st2{fill:#5A8FFF;}
	.st3{fill:#FFFFFF;}
</style>
<g>
	<path class="st0" d="M60.5,51.8H4.5c-1.1,0-2-0.9-2-2V15.2c0-1.1,0.9-2,2-2h55.9c1.1,0,2,0.9,2,2v34.6
		C62.5,50.9,61.6,51.8,60.5,51.8z"/>
	<line class="st1" x1="34.3" y1="26.2" x2="56.1" y2="26.2"/>
	<line class="st1" x1="34.3" y1="32.1" x2="56.1" y2="32.1"/>
	<line class="st1" x1="34.3" y1="38" x2="50.4" y2="38"/>
	<g>
		<circle class="st2" cx="17.3" cy="32.1" r="9.2"/>
		<path class="st3" d="M17.4,32.3c1.7,0,3.1-1.4,3.1-3.1c0-1.7-1.4-3.1-3.1-3.1c-1.7,0-3.1,1.4-3.1,3.1
			C14.3,30.9,15.7,32.3,17.4,32.3z M19.1,33.7c-0.1,0-0.2,0-0.3,0c-0.9,0.3-2,0.3-2.9,0c-0.1,0-0.2,0-0.3,0c-1.5,0-2.8,0.9-3.5,2.1
			c2.4,2.9,6.7,3.3,9.6,0.8c0.3-0.3,0.6-0.5,0.8-0.8C22,34.6,20.6,33.7,19.1,33.7z"/>
	</g>
</g>
<g>
</g>
<g>
</g>
<g>
</g>
<g>
</g>
<g>
</g>
<g>
</g>
<g>
</g>
<g>
</g>
<g>
</g>
<g>
</g>
<g>
</g>
<g>
</g>
<g>
</g>
<g>
</g>
<g>
</g>
</svg>
