<?xml version="1.0" encoding="utf-8"?>
<!-- Generator: Adobe Illustrator 27.5.0, SVG Export Plug-In . SVG Version: 6.00 Build 0)  -->
<svg version="1.1" id="Layer_1" xmlns="http://www.w3.org/2000/svg" xmlns:xlink="http://www.w3.org/1999/xlink" x="0px" y="0px"
	 viewBox="0 0 65 65" style="enable-background:new 0 0 65 65;" xml:space="preserve">
<style type="text/css">
	.st0{fill:none;stroke:#00B977;stroke-linecap:round;stroke-miterlimit:10;}
	.st1{fill:#2C3E50;}
	.st2{fill:none;stroke:#2C3E50;stroke-width:0.5;stroke-miterlimit:10;}
	.st3{fill:#5A8FFF;}
</style>
<g>
	<path class="st2" d="M48.4,21.9h-9.3c-0.7,0-1.3-0.6-1.3-1.3v-9.3H18.5c-1.1,0-2,0.9-2,2l0,0v38.5c0,1.1,0.9,2,2,2l0,0h27.9
		c1.1,0,2-0.9,2-2l0,0V21.9z"/>
	<path class="st3" d="M48.1,20.3l-8.7-8.7C39,11.2,38.5,11,37.9,11h-0.5v9.9c0,0.8,0.6,1.4,1.4,1.4h9.9v-0.5
		C48.7,21.2,48.5,20.7,48.1,20.3z"/>
	<line class="st2" x1="22.6" y1="35.4" x2="43.2" y2="35.4"/>
	<line class="st2" x1="22.6" y1="41.6" x2="43.2" y2="41.6"/>
	<line class="st2" x1="31.4" y1="47.4" x2="43.2" y2="47.4"/>
</g>
<g>
	<path class="st1" d="M26.9,30.3c-0.8,0-1.5-0.3-1.9-0.8s-0.7-1.3-0.7-2.2s0.2-1.6,0.7-2.2s1.1-0.8,1.9-0.8c0.6,0,1.2,0.2,1.6,0.5
		s0.7,0.8,0.7,1.3h-0.8c0-0.4-0.2-0.6-0.5-0.9S27.3,25,26.9,25c-0.6,0-1,0.2-1.4,0.6s-0.5,1-0.5,1.7c0,0.7,0.2,1.3,0.5,1.7
		s0.8,0.6,1.4,0.6c0.4,0,0.8-0.1,1.1-0.3s0.4-0.5,0.5-0.9h0.8c-0.1,0.6-0.3,1.1-0.7,1.4S27.5,30.3,26.9,30.3z"/>
	<path class="st1" d="M30.2,24.5h2.1c0.5,0,0.9,0,1.2,0.1s0.6,0.3,0.8,0.6c0.2,0.3,0.3,0.6,0.3,1c0,0.6-0.2,1-0.6,1.3
		s-0.9,0.4-1.6,0.4H31v2.3h-0.8V24.5z M31,27.2h1.4c0.5,0,0.8-0.1,1-0.3s0.3-0.4,0.3-0.8c0-0.2-0.1-0.4-0.2-0.6
		c-0.1-0.2-0.3-0.3-0.4-0.3s-0.4-0.1-0.8-0.1H31V27.2z"/>
	<path class="st1" d="M40.9,30.1l-0.4,0.5l-0.9-0.7c-0.4,0.3-0.9,0.4-1.4,0.4c-0.8,0-1.5-0.3-2-0.8c-0.5-0.5-0.8-1.3-0.8-2.1
		c0-0.9,0.3-1.6,0.8-2.1c0.5-0.5,1.2-0.8,2-0.8c0.8,0,1.5,0.3,2,0.8c0.5,0.5,0.8,1.3,0.8,2.1c0,0.9-0.2,1.6-0.7,2.1L40.9,30.1z
		 M39.5,29c0.4-0.4,0.5-1,0.5-1.7c0-0.7-0.2-1.3-0.5-1.7c-0.4-0.4-0.8-0.6-1.4-0.6c-0.6,0-1,0.2-1.4,0.6c-0.4,0.4-0.6,1-0.6,1.7
		c0,0.7,0.2,1.3,0.6,1.7s0.8,0.6,1.4,0.6c0.3,0,0.6-0.1,0.9-0.2L38.4,29l0.4-0.5L39.5,29z"/>
</g>
</svg>
