<?xml version="1.0" encoding="utf-8"?>
<!-- Generator: Adobe Illustrator 26.0.1, SVG Export Plug-In . SVG Version: 6.00 Build 0)  -->
<svg version="1.1" id="Layer_1" xmlns="http://www.w3.org/2000/svg" xmlns:xlink="http://www.w3.org/1999/xlink" x="0px" y="0px"
	 viewBox="0 0 400 400" style="enable-background:new 0 0 400 400;" xml:space="preserve">
<style type="text/css">
	.st0{fill:#FFFFFF;stroke:#2C3E50;stroke-width:3;stroke-miterlimit:10;}
	.st1{fill:#5A8FFF;}
</style>
<path class="st0" d="M164.3,186l-97.1,97.1c-13.7,14.1-13.3,36.6,0.7,50.2c13.8,13.4,35.7,13.4,49.5,0l82.6-82.6
	c-1.5-8.6-0.2-17.5,3.7-25.4L164.3,186z M92.3,321.5c-7.4,0-13.3-6-13.3-13.3s6-13.3,13.3-13.3c7.4,0,13.3,6,13.3,13.3
	S99.6,321.5,92.3,321.5z M338.5,120.2c-0.9-3.6-4.5-5.7-8.1-4.8c-1.2,0.3-2.2,0.9-3.1,1.7L286,158.4l-37.7-6.3l-6.3-37.7l41.3-41.3
	c2.6-2.6,2.6-6.8,0-9.4c-0.9-0.9-2-1.5-3.2-1.8c-27.2-6.8-56,1.2-75.8,21c-22,22-28,53.9-18.9,81.7l-2.5,2.5l39.3,39.3
	c15.8-7.8,34.9-4.7,47.4,7.7l4,4c16.5-2.6,31.8-10.3,43.6-22.2C337.3,176.2,345.3,147.4,338.5,120.2L338.5,120.2z"/>
<path class="st1" d="M334.8,279.2c8,8.1,8,21.2,0,29.2l-29.2,29.2c-8,8.1-21.1,8.1-29.2,0.1l-0.1-0.1l-65-65
	c-12.8-12.8-15.3-32-7.7-47.4l-59.1-59.1H110l-53.3-71l35.5-35.5l71,53.3v34.5l59.1,59.1c15.8-7.8,34.9-4.7,47.4,7.7L334.8,279.2z"
	/>
<g>
</g>
<g>
</g>
<g>
</g>
<g>
</g>
<g>
</g>
<g>
</g>
<g>
</g>
<g>
</g>
<g>
</g>
<g>
</g>
<g>
</g>
<g>
</g>
<g>
</g>
<g>
</g>
<g>
</g>
</svg>
