<?xml version="1.0" encoding="UTF-8"?><svg id="Layer_1" xmlns="http://www.w3.org/2000/svg" viewBox="0 0 200 200"><defs><style>.cls-1{fill:none;stroke:#000;stroke-miterlimit:10;}.cls-2{fill:#558bfe;}</style></defs><path class="cls-1" d="M180.6,105.4c-5,0-9.6,2.8-11.9,7.1h-11.6v-22.4h11.6c2.3,4.4,6.9,7.1,11.9,7.1,7.5,0,13.5-6.1,13.5-13.5s-6.1-13.5-13.5-13.5-9.6,2.8-11.9,7.1h-11.6v-.5c0-6.4-3.4-12.3-8.9-15.5l-21.8-12.6.3-13.1c4.4-2.3,7.3-6.8,7.4-11.8.2-7.5-5.8-13.7-13.3-13.8h-.3c-7.3,0-13.4,5.9-13.5,13.3,0,5,2.6,9.6,6.9,12.1v6.1c-.1,0-6.8-3.8-6.8-3.8-5.5-3.2-12.4-3.2-17.9,0l-6.3,3.6v-3.5c4.5-2.3,7.3-6.8,7.5-11.8,0-3.6-1.3-7-3.8-9.7s-5.9-4.1-9.5-4.2c-3.6,0-7,1.3-9.7,3.8-2.6,2.5-4.1,5.9-4.2,9.5,0,5,2.6,9.6,6.9,12.1l-.2,11.2-21.8,12.6c-5.5,3.2-8.9,9-8.9,15.4l-8,.2c-2.4-4.3-7.1-7-12.1-6.9-3.6,0-7,1.6-9.5,4.2s-3.8,6-3.8,9.7c0,3.6,1.6,7,4.2,9.5,2.6,2.5,6,3.8,9.7,3.8,5,0,9.5-3,11.8-7.4l7.7-.2v17.8l-8,.2c-2.4-4.3-7.1-7-12.1-6.9-3.6,0-7,1.6-9.5,4.2-2.5,2.7-3.9,6.1-3.8,9.7.2,7.4,6.2,13.3,13.5,13.3h.3c5,0,9.5-3,11.8-7.4l7.7-.2v4.1c0,6.4,3.4,12.3,8.9,15.5l19.1,11,.6,12.3c-4.3,2.5-6.8,7.2-6.6,12.3.3,7.2,6.3,12.9,13.5,12.9s.4,0,.6,0c7.5-.3,13.2-6.7,12.9-14.1-.2-5-3.2-9.4-7.7-11.6l-.2-4.1,8.8,5.1c2.7,1.6,5.8,2.4,8.9,2.4s6.2-.8,8.9-2.4l5.4-3.1v4.2c-4.4,2.3-7.1,6.9-7.1,11.9,0,7.5,6.1,13.5,13.5,13.5s13.5-6.1,13.5-13.5-2.8-9.6-7.1-11.9v-11.6l22.9-13.2c5.2-3,8.5-8.4,8.9-14.4h11.6c2.3,4.4,6.9,7.1,11.9,7.1,7.5,0,13.5-6.1,13.5-13.5s-6.1-13.6-13.5-13.6h0ZM181,80.6c1.7,0,3.1,1.4,3.1,3.1s-1.4,3.1-3.1,3.1-3.1-1.4-3.1-3.1,1.4-3.1,3.1-3.1ZM19,86.6c-1.7,0-3.1-1.3-3.2-3,0-.8.3-1.6.9-2.2s1.3-.9,2.2-1h0c.8,0,1.6.3,2.2.9.6.6.9,1.3,1,2.2,0,1.7-1.3,3.1-3,3.2ZM19,117.3c-1.7,0-3.1-1.3-3.2-3,0-.8.3-1.6.9-2.2s1.3-.9,2.2-1h0c1.7,0,3.1,1.4,3.1,3,0,1.7-1.3,3.1-3,3.2h0ZM120.5,20h0c1.7,0,3.1,1.5,3,3.2,0,.8-.3,1.6-1,2.2s-1.4.9-2.2.9c-.8,0-1.6-.3-2.2-1s-.9-1.4-.9-2.2c0-1.7,1.4-3,3.1-3h0ZM76.9,22.1h0c1.7,0,3.1,1.5,3,3.2,0,1.7-1.5,3.1-3.2,3-.8,0-1.6-.3-2.2-1s-.9-1.4-.9-2.2c0-1.7,1.4-3,3.1-3h0ZM74.9,178.2c-1.7,0-3.2-1.2-3.2-3s1.2-3.2,3-3.2h.1c1.7,0,3,1.3,3.1,3,0,1.7-1.2,3.1-3,3.2h0ZM118.8,180c-1.7,0-3.1-1.4-3.1-3.1s1.4-3.1,3.1-3.1,3.1,1.4,3.1,3.1-1.4,3.1-3.1,3.1ZM181,122c-1.7,0-3.1-1.4-3.1-3.1s1.4-3.1,3.1-3.1,3.1,1.4,3.1,3.1-1.4,3.1-3.1,3.1Z"/><path class="cls-2" d="M113,78.8c-3.7-3.1-8.4-4.7-14-4.7s-10.4,1.7-14.4,5c-4.1,3.4-6.5,8-7.1,13.8l-.3,3.3,15,2.5.5-3.6c.9-6.7,4-6.7,5.5-6.7s2.3.3,3,.9c.4.4.9,1,.9,2.3s-2.1,3.8-3.8,5c-2.7,1.9-4.3,3.3-5.2,4.5-1.2,1.5-1.7,3.5-1.7,5.8v21.6h15.8v-15.6h-1.5v-1.3c0-1.6.1-2.3.2-2.6,0,0,.3-.3.6-.5,3.7-2.5,6-4.2,7.2-5.2,1.4-1.2,2.7-3,3.7-5.1,1.1-2.2,1.7-4.6,1.7-7,0-4.9-2-9.1-5.9-12.4h0Z"/></svg>