<?xml version="1.0" encoding="UTF-8"?>
<svg id="Layer_1" data-name="Layer 1" xmlns="http://www.w3.org/2000/svg" version="1.1" viewBox="0 0 400 400">
  <defs>
    <style>
      .cls-1 {
        fill: none;
        stroke: #2c3e50;
        stroke-miterlimit: 10;
        stroke-width: 4px;
      }

      .cls-2 {
        fill: #5a8fff;
      }

      .cls-2, .cls-3 {
        stroke-width: 0px;
      }

      .cls-3 {
        fill: #fff;
      }
    </style>
  </defs>
  <path class="cls-2" d="M358.5,286.4l-10.3-6c1-5.6,1-11.4,0-17l10.3-6c1.2-.7,1.7-2.1,1.3-3.4-2.7-8.6-7.3-16.4-13.2-22.9-.9-1-2.4-1.2-3.6-.6l-10.3,6c-4.3-3.7-9.3-6.6-14.7-8.5v-11.9c0-1.4-.9-2.5-2.3-2.8-8.9-2-18-1.9-26.4,0-1.3.3-2.3,1.5-2.3,2.8v11.9c-5.4,1.9-10.4,4.8-14.7,8.5l-10.3-6c-1.2-.7-2.7-.5-3.6.6-6,6.5-10.5,14.2-13.2,22.9-.4,1.3.1,2.7,1.3,3.4l10.3,6c-1,5.6-1,11.4,0,17l-10.3,6c-1.2.7-1.7,2.1-1.3,3.4,2.7,8.6,7.3,16.4,13.2,22.9.9,1,2.4,1.2,3.6.6l10.3-6c4.3,3.7,9.3,6.6,14.7,8.5v11.9c0,1.4.9,2.5,2.3,2.8,8.9,2,18,1.9,26.4,0,1.3-.3,2.3-1.5,2.3-2.8v-11.9c5.4-1.9,10.4-4.8,14.7-8.5l10.3,6c1.2.7,2.7.5,3.6-.6,6-6.5,10.5-14.2,13.2-22.9.4-1.3-.2-2.7-1.4-3.4ZM302.5,291.3c-10.7,0-19.4-8.7-19.4-19.4s8.7-19.4,19.4-19.4,19.4,8.7,19.4,19.4-8.7,19.4-19.4,19.4Z"/>
  <rect class="cls-3" x="80" y="116" width="240" height="168" rx="84" ry="84"/>
  <line class="cls-1" x1="165.2" y1="130" x2="165.2" y2="110"/>
  <line class="cls-1" x1="237" y1="130" x2="237" y2="110"/>
  <g>
    <rect class="cls-1" x="100" y="130" width="200" height="140" rx="70" ry="70"/>
    <ellipse class="cls-1" cx="165.2" cy="200.3" rx="20" ry="19.8"/>
    <ellipse class="cls-1" cx="237.6" cy="200.3" rx="20" ry="19.8"/>
  </g>
</svg>