<?xml version="1.0" encoding="utf-8"?>
<!-- Generator: Adobe Illustrator 25.0.1, SVG Export Plug-In . SVG Version: 6.00 Build 0)  -->
<svg version="1.1" id="Layer_1" xmlns="http://www.w3.org/2000/svg" xmlns:xlink="http://www.w3.org/1999/xlink" x="0px" y="0px"
	 viewBox="0 0 65 65" style="enable-background:new 0 0 65 65;" xml:space="preserve">
<style type="text/css">
	.st0{fill:#5A8FFF;}
	.st1{fill:#FFFFFF;stroke:#2C3E50;stroke-width:0.5;stroke-miterlimit:10;}
	.st2{fill:none;stroke:#2C3E50;stroke-width:0.5;stroke-miterlimit:10;}
</style>
<g>
	<path class="st0" d="M9.8,39.5L2.7,51.8V23c0-2.7,2.2-5,5-5h16.6l6.6,6.6h16.6c2.7,0,5,2.2,5,5v5h-34C14.9,34.6,11.6,36.5,9.8,39.5
		z"/>
	<g>
		<path class="st1" d="M50.2,16.3h-8.3c-0.7,0-1.2-0.5-1.2-1.1v-8H23.5c-1,0-1.8,0.8-1.8,1.7c0,0,0,0,0,0v33c0,0.9,0.8,1.7,1.8,1.7
			c0,0,0,0,0,0h25c1,0,1.8-0.8,1.8-1.7c0,0,0,0,0,0V16.3z"/>
		<path class="st1" d="M49.8,14.7l-7.3-7c-0.3-0.3-0.8-0.5-1.3-0.5h-0.5v8c0,0.6,0.5,1.1,1.2,1.1h8.4v-0.4
			C50.3,15.5,50.1,15.1,49.8,14.7z"/>
	</g>
	<path class="st1" d="M18.4,37.9h41.4c1.4,0,2.5,1.1,2.5,2.5c0,0.4-0.1,0.9-0.3,1.3l-7.5,12.9c-1.2,2-3.4,3.3-5.7,3.3H7.3
		c-1.4,0-2.5-1.1-2.5-2.5c0-0.4,0.1-0.9,0.3-1.3l7.5-12.9C13.9,39.2,16.1,37.9,18.4,37.9z"/>
	<line class="st2" x1="26.1" y1="17.5" x2="36.3" y2="17.5"/>
	<line class="st2" x1="26.2" y1="23.8" x2="45.2" y2="23.8"/>
	<line class="st2" x1="26.2" y1="30.8" x2="45.2" y2="30.8"/>
</g>
<g>
</g>
<g>
</g>
<g>
</g>
<g>
</g>
<g>
</g>
<g>
</g>
<g>
</g>
<g>
</g>
<g>
</g>
<g>
</g>
<g>
</g>
<g>
</g>
<g>
</g>
<g>
</g>
<g>
</g>
</svg>
