<?xml version="1.0" encoding="utf-8"?>
<!-- Generator: Adobe Illustrator 27.1.0, SVG Export Plug-In . SVG Version: 6.00 Build 0)  -->
<svg version="1.1" id="Layer_1" xmlns="http://www.w3.org/2000/svg" xmlns:xlink="http://www.w3.org/1999/xlink" x="0px" y="0px"
	 viewBox="0 0 150 150" style="enable-background:new 0 0 150 150;" xml:space="preserve">
<style type="text/css">
	.st0{fill:#2C3E50;}
</style>
<path class="st0" d="M125.75,75c-12.14,0-16.72,10.8-20.26,6.39c-4.67-5.82-0.47-24.9,0.81-30.63c-7.95,1.48-31.86,5.64-38.04,0.51
	c-3.86-3.21,7.27-10.1,7.27-20.07c0-9.58-7.85-15.62-17.51-15.62c-10.11,0-19.69,5.95-19.69,15.98c0,12.31,10.66,16.62,5.65,20.57
	c-6.6,5.2-27.64,0.72-35.85-1.25v80.17c7.73,1.86,16.41,3.4,24.65,3.4c9.82,0,19.93-2.75,19.93-12.57c0-6.81-7.43-9.48-7.43-17.15
	c0-5.67,5.23-7.43,10.91-7.43c8.98,0,11.38,4.67,11.38,7.43c0,6.68-7.96,8.44-7.96,17.78c0,3.19,1.16,5.91,3.37,7.85
	c8.16,7.21,24.78,1.47,43.44,1.46c-0.22-0.8-6.22-20.13-1.79-25.98c3.88-5.11,11.28,6.76,21.48,6.76c9.77,0,15.76-9.35,15.76-19.01
	C141.87,83.63,135.78,75,125.75,75L125.75,75z M126.11,105.16c-6.97,0-9.6-7.87-18.93-7.87c-12.44,0-12.73,15.09-10.28,27.35
	c-8.45,0.79-24.85,3.82-29,0.14c-4.67-4.13,7.1-9.79,7.1-20.07c0-8.75-7.74-14.86-18.81-14.86c-17.41,0-23.89,13.89-13.04,28.33
	c1.1,1.46,2.13,2.84,2.13,3.68c0,7.82-21.83,4.79-29.72,3.23V60.13c14.69,2.71,37.15,4.21,37.15-10.8c0-6.63-6.95-9.98-6.95-17.79
	c0-5.73,6.55-8.55,12.26-8.55c4.65,0,10.08,2.15,10.08,8.2c0,6.83-7.96,9.46-7.96,18.72c0,13.43,23.41,11.82,36.73,10.01
	C95,72.51,94.96,89.86,107.76,89.86c6.77,0,10.14-7.43,17.99-7.43c5.79,0,8.69,5.41,8.69,11.14
	C134.44,101.56,129.57,105.16,126.11,105.16L126.11,105.16z"/>
<g>
</g>
<g>
</g>
<g>
</g>
<g>
</g>
<g>
</g>
<g>
</g>
<g>
</g>
<g>
</g>
<g>
</g>
<g>
</g>
<g>
</g>
<g>
</g>
<g>
</g>
<g>
</g>
<g>
</g>
</svg>
