<?xml version="1.0" encoding="utf-8"?>
<!-- Generator: Adobe Illustrator 27.1.0, SVG Export Plug-In . SVG Version: 6.00 Build 0)  -->
<svg version="1.1" id="Layer_1" xmlns="http://www.w3.org/2000/svg" xmlns:xlink="http://www.w3.org/1999/xlink" x="0px" y="0px"
	 viewBox="0 0 150 150" style="enable-background:new 0 0 150 150;" xml:space="preserve">
<style type="text/css">
	.st0{fill:#2C3E50;}
</style>
<path class="st0" d="M55.38,67.13l7.3,22.3c-2.56-0.26-5.53-0.17-8.79,0.89c-7.41,2.43-10.96,10.13-8.48,17.7
	c2.91,8.89,13.33,7.36,18.27,8.55c3.92,0.96,13.02,4.43,15.95,7.13c-1.36,1.58-1.89,3.82-1.19,5.94l3.84,11.72
	c1.06,3.24,4.54,5,7.78,3.94l41.02-13.43c3.24-1.06,5-4.54,3.94-7.78l-3.84-11.72c-0.55-1.68-1.75-2.96-3.23-3.66
	c-0.66-6.81,3.44-15.52,0.2-25.43l-1.39-4.25c-3.57-10.91-12.02-14.36-21.04-11.08c-3.99-1.59-8.99-1.37-12.99,0.88
	c-2.6-0.61-5.33-0.56-7.96,0.2c-0.07,0.02-0.13,0.04-0.19,0.06l-3.41-10.4c-2.3-7.02-10.06-10.98-17.11-8.67
	C57.06,52.31,53.12,60.24,55.38,67.13z M88.13,139.45l-3.84-11.72l41.02-13.43l3.84,11.72L88.13,139.45z M75.3,60.61l5.95,18.18
	c2.09-3.52,7.61-5.68,12.52-3c3.19-3.53,9-3.32,11.56-0.92c7.39-3.86,12.91-2,15.56,6.1l1.39,4.25c2.66,8.12-1.13,15.92-0.51,23.76
	l-36.38,11.91c-3.75-4.82-15.08-9.03-20.25-10.3c-5.62-1.36-12.44-0.09-13.87-4.48c-1.44-4.39,0.44-8.58,4.54-9.92
	c7.03-2.3,12.33,1.8,15.79,0.67L61.24,65.21c-1.2-3.68,0.99-8.11,4.73-9.33C69.76,54.64,74.06,56.82,75.3,60.61z M120.18,118.42
	c2.02-0.66,4.2,0.44,4.86,2.46c0.66,2.02-0.44,4.2-2.46,4.86c-2.02,0.66-4.2-0.44-4.86-2.46
	C117.05,121.26,118.15,119.08,120.18,118.42z"/>
<path class="st0" d="M115.71,10.92H30.54c-4.15,0-7.51,3.37-7.51,7.51v34.91c0,4.15,3.37,7.51,7.51,7.51h19.45v-7.51H31.48
	c-0.52,0-0.94-0.42-0.94-0.94V19.37c0-0.52,0.42-0.94,0.94-0.94h83.29c0.52,0,0.94,0.42,0.94,0.94V52.4c0,0.52-0.42,0.94-0.94,0.94
	H87.24v7.51h28.47c4.15,0,7.51-3.37,7.51-7.51V18.43C123.22,14.28,119.86,10.92,115.71,10.92z"/>
<g>
</g>
<g>
</g>
<g>
</g>
<g>
</g>
<g>
</g>
<g>
</g>
<g>
</g>
<g>
</g>
<g>
</g>
<g>
</g>
<g>
</g>
<g>
</g>
<g>
</g>
<g>
</g>
<g>
</g>
</svg>
