<?xml version="1.0" encoding="utf-8"?>
<!-- Generator: Adobe Illustrator 27.1.0, SVG Export Plug-In . SVG Version: 6.00 Build 0)  -->
<svg version="1.1" id="Layer_1" xmlns="http://www.w3.org/2000/svg" xmlns:xlink="http://www.w3.org/1999/xlink" x="0px" y="0px"
	 viewBox="0 0 400 400" style="enable-background:new 0 0 400 400;" xml:space="preserve">
<style type="text/css">
	.st0{fill:none;stroke:#2C3E50;stroke-width:3;stroke-miterlimit:10;}
	.st1{fill:#2C3E50;}
	.st2{fill:#5A8FFF;enable-background:new    ;}
</style>
<line class="st0" x1="169.42" y1="102.63" x2="250.48" y2="102.63"/>
<line class="st0" x1="169.42" y1="136.76" x2="318.85" y2="136.76"/>
<line class="st0" x1="169.42" y1="170.88" x2="218.53" y2="170.88"/>
<line class="st0" x1="239.66" y1="170.88" x2="318.85" y2="170.88"/>
<line class="st0" x1="168.55" y1="205.01" x2="318.85" y2="205.01"/>
<path class="st1" d="M346.52,47.36h-206.3c-3.53,0-6.39,2.86-6.39,6.39v167.13h3V53.75c0-1.87,1.52-3.39,3.39-3.39h206.3
	c1.87,0,3.39,1.52,3.39,3.39v277.7c0,1.87-1.52,3.39-3.39,3.39H243.37v3h103.15c3.53,0,6.39-2.86,6.39-6.39V53.75
	C352.9,50.22,350.04,47.36,346.52,47.36z"/>
<g>
	<g>
		<path class="st1" d="M167.27,367.76h-94.8c-9.58,0-17.37-7.79-17.37-17.37v-56.35c0-9.58,7.79-17.37,17.37-17.37h94.8
			c9.58,0,17.37,7.79,17.37,17.37v56.35C184.64,359.97,176.84,367.76,167.27,367.76z M72.47,279.68c-7.92,0-14.37,6.44-14.37,14.37
			v56.35c0,7.92,6.44,14.37,14.37,14.37h94.8c7.92,0,14.37-6.44,14.37-14.37v-56.35c0-7.92-6.44-14.37-14.37-14.37H72.47z"/>
	</g>
	<circle class="st2" cx="89.81" cy="316.66" r="10.86"/>
	<circle class="st2" cx="120.69" cy="245.66" r="13.04"/>
	<circle class="st2" cx="151.68" cy="316.66" r="10.86"/>
	<g>
		<rect x="119.19" y="258.69" class="st1" width="3" height="19.49"/>
	</g>
	<g>
		<path class="st1" d="M183.63,348.11l-0.14-3c12.62-0.57,22.61-11.15,22.27-23.59c-0.33-11.86-10.01-21.66-22.05-22.31l0.16-3
			c13.59,0.73,24.52,11.81,24.88,25.22C209.15,335.5,197.87,347.46,183.63,348.11z"/>
	</g>
	<g>
		<path class="st1" d="M56.28,348.11c-14.24-0.64-25.52-12.61-25.13-26.67c0.37-13.41,11.3-24.49,24.88-25.22l0.16,3
			c-12.04,0.65-21.72,10.45-22.05,22.31c-0.34,12.44,9.65,23.02,22.27,23.59L56.28,348.11z"/>
	</g>
</g>
<g>
</g>
<g>
</g>
<g>
</g>
<g>
</g>
<g>
</g>
<g>
</g>
<g>
</g>
<g>
</g>
<g>
</g>
<g>
</g>
<g>
</g>
<g>
</g>
<g>
</g>
<g>
</g>
<g>
</g>
</svg>
