<?xml version="1.0" encoding="utf-8"?>
<!-- Generator: Adobe Illustrator 26.0.0, SVG Export Plug-In . SVG Version: 6.00 Build 0)  -->
<svg version="1.1" id="Layer_1" xmlns="http://www.w3.org/2000/svg" xmlns:xlink="http://www.w3.org/1999/xlink" x="0px" y="0px"
	 viewBox="0 0 400 400" style="enable-background:new 0 0 400 400;" xml:space="preserve">
<style type="text/css">
	.st0{fill:url(#SVGID_1_);}
	.st1{fill:url(#SVGID_00000156568053465318113020000014577752149890807738_);}
	.st2{fill:#FFFFFF;}
	.st3{fill:#FFFFFF;stroke:#2C3E50;stroke-width:3;stroke-miterlimit:10;}
	.st4{fill:none;stroke:#2C3E50;stroke-width:3;stroke-miterlimit:10;}
</style>
<g>
	
		<linearGradient id="SVGID_1_" gradientUnits="userSpaceOnUse" x1="49.4387" y1="225.6911" x2="241.9307" y2="225.6911" gradientTransform="matrix(1 0 0 -1 0 402)">
		<stop  offset="5.327789e-08" style="stop-color:#0658D4"/>
		<stop  offset="1" style="stop-color:#2C7EF9"/>
	</linearGradient>
	<path class="st0" d="M101.17,101.77c-28.58,0-51.73,23.69-51.73,52.92c0,29.23,23.16,52.92,51.73,52.92c3.04,0,6.02-0.29,8.92-0.8
		c10.06,25.81,34.69,44.05,63.5,44.05c26.86,0,50.07-15.87,61.25-38.92c-5.7-1.16-11.16-3.16-16.24-6.01
		c-8.7,16.32-25.6,27.44-45.01,27.44c-21.33,0-39.65-13.39-47.36-32.39c-1.6-3.95-2.72-8.15-3.33-12.51c0-0.02,0-0.03-0.01-0.03
		c-0.35-1.74-1.85-3.05-3.67-3.05c-0.45,0-0.89,0.1-1.3,0.25c-0.31,0.18-0.61,0.35-0.92,0.51c-3.44,1.83-7.21,3.08-11.2,3.62
		c-1.52,0.21-3.06,0.35-4.63,0.35c-19.11,0-34.64-15.89-34.64-35.44c0-19.53,15.53-35.44,34.64-35.44c1.57,0,3.11,0.14,4.63,0.35
		c6.19,0.85,11.86,3.37,16.57,7.12c1.41,1.12,2.73,2.35,3.96,3.68c2.77,2.99,5,6.48,6.62,10.3c0.07,0.16,0.13,0.33,0.2,0.49
		c0.62,1.25,1.87,2.11,3.33,2.11c1.03,0,1.95-0.43,2.63-1.11c0.01-0.01,0.01-0.01,0.02-0.02c3.03-2.83,6.36-5.33,9.98-7.36
		c7.28-4.06,15.62-6.38,24.47-6.38s17.19,2.32,24.48,6.38c5.42,3.03,10.23,7.04,14.25,11.78c2.11,2.5,4.01,5.2,5.64,8.08
		c3.44,6.07,5.72,12.92,6.54,20.21c0.09,0.09,0.17,0.2,0.26,0.29c1.04,1.12,2.17,2.17,3.35,3.12c4,3.18,8.73,5.23,13.72,5.96
		c0.05-1.11,0.11-2.22,0.11-3.35c0-9.28-1.78-18.13-4.99-26.23c-2.98-7.54-7.2-14.43-12.42-20.39c-1.17-1.35-2.41-2.64-3.68-3.88
		c-4.14-4.06-8.78-7.59-13.82-10.49c-9.89-5.69-21.3-8.95-33.45-8.95c-12.15,0-23.55,3.26-33.44,8.95
		c-3.93-4.62-8.65-8.53-13.91-11.52c-4.94-2.81-10.38-4.8-16.14-5.83C107.19,102.04,104.22,101.77,101.17,101.77L101.17,101.77z"/>
	
		<linearGradient id="SVGID_00000097475933525467611110000007756307115880736411_" gradientUnits="userSpaceOnUse" x1="322.8829" y1="209.5674" x2="162.0037" y2="278.5156" gradientTransform="matrix(1 0 0 -1 0 402)">
		<stop  offset="1.118836e-07" style="stop-color:#198852"/>
		<stop  offset="1" style="stop-color:#43B476"/>
	</linearGradient>
	<path style="fill:url(#SVGID_00000097475933525467611110000007756307115880736411_);" d="M173.59,58.51
		c-26.86,0-50.07,15.87-61.25,38.92c5.7,1.16,11.16,3.15,16.24,6.01c8.7-16.32,25.6-27.44,45.01-27.44
		c21.33,0,39.65,13.39,47.36,32.39c1.6,3.95,2.71,8.14,3.33,12.51c0,0,0,0.02,0,0.03c0.36,1.74,1.87,3.05,3.67,3.05
		c0.46,0,0.9-0.09,1.3-0.25c0.31-0.18,0.61-0.35,0.92-0.51c3.44-1.82,7.21-3.07,11.2-3.62c1.52-0.21,3.05-0.35,4.63-0.35
		c19.11,0,34.64,15.89,34.64,35.44s-15.53,35.44-34.64,35.44c-1.58,0-3.11-0.15-4.63-0.35c-6.19-0.86-11.86-3.37-16.57-7.12
		c-1.42-1.12-2.73-2.36-3.96-3.68c-2.77-2.99-5-6.48-6.62-10.3c-0.07-0.16-0.13-0.33-0.2-0.49c-0.62-1.26-1.87-2.11-3.33-2.11
		c-1.02,0-1.95,0.42-2.63,1.11c0,0.01-0.02,0.01-0.02,0.02c-3.03,2.83-6.36,5.33-9.98,7.36c-7.28,4.06-15.62,6.37-24.48,6.37
		c-8.86,0-17.2-2.31-24.47-6.37c-5.42-3.02-10.24-7.04-14.25-11.77c-2.12-2.5-4.01-5.2-5.64-8.09c-3.44-6.07-5.73-12.91-6.55-20.2
		c-0.08-0.1-0.16-0.2-0.25-0.3c-1.04-1.12-2.16-2.17-3.35-3.12c-3.99-3.17-8.73-5.23-13.71-5.96c-0.05,1.11-0.11,2.22-0.11,3.35
		c0,9.28,1.78,18.13,4.99,26.23c2.98,7.54,7.2,14.43,12.42,20.4c1.17,1.35,2.41,2.64,3.68,3.88c4.14,4.06,8.78,7.59,13.82,10.49
		c9.89,5.69,21.29,8.94,33.44,8.94c12.15,0,23.56-3.25,33.45-8.94c3.93,4.61,8.64,8.53,13.91,11.52c4.94,2.81,10.38,4.8,16.14,5.82
		c2.89,0.52,5.88,0.81,8.92,0.81c28.57,0,51.73-23.69,51.73-52.92s-23.16-52.92-51.73-52.92c-3.04,0-6.03,0.29-8.92,0.81
		C227.03,76.75,202.41,58.51,173.59,58.51z"/>
	<circle class="st2" cx="266.12" cy="242.73" r="71.54"/>
	<path class="st3" d="M345.79,325.6H231.34c-4.42,0-8-3.58-8-8V215.08c0-4.42,3.58-8,8-8h114.45c4.42,0,8,3.58,8,8V317.6
		C353.79,322.02,350.2,325.6,345.79,325.6z"/>
	<line class="st4" x1="253.72" y1="197.96" x2="253.72" y2="214.96"/>
	<line class="st4" x1="324.07" y1="197.96" x2="324.07" y2="214.96"/>
	<line class="st4" x1="223.94" y1="234.74" x2="353.65" y2="234.74"/>
	<path class="st4" d="M264.61,279.08l13.18,13.18c1.1,1.1,2.88,1.1,3.98,0l31.57-31.57"/>
</g>
<g>
</g>
<g>
</g>
<g>
</g>
<g>
</g>
<g>
</g>
<g>
</g>
<g>
</g>
<g>
</g>
<g>
</g>
<g>
</g>
<g>
</g>
<g>
</g>
<g>
</g>
<g>
</g>
<g>
</g>
</svg>
