<?xml version="1.0" encoding="utf-8"?>
<!-- Generator: Adobe Illustrator 25.2.3, SVG Export Plug-In . SVG Version: 6.00 Build 0)  -->
<svg version="1.1" id="Layer_1" xmlns="http://www.w3.org/2000/svg" xmlns:xlink="http://www.w3.org/1999/xlink" x="0px" y="0px"
	 viewBox="0 0 400 400" style="enable-background:new 0 0 400 400;" xml:space="preserve">
<style type="text/css">
	.st0{fill:#FFFFFF;stroke:#2C3E50;stroke-width:3;stroke-miterlimit:10;}
	.st1{fill:#5A8FFF;}
</style>
<g>
	<g>
		<path class="st0" d="M92.8,182.3h23.9c3.3,0,6,2.7,6,6V238h25.8c5.3,0,8,6.4,4.2,10.2L109,291.9c-2.3,2.3-6.1,2.3-8.5,0
			l-43.7-43.7c-3.8-3.8-1.1-10.2,4.2-10.2h25.8v-49.7C86.9,184.9,89.5,182.3,92.8,182.3z"/>
		<g>
			<path class="st1" d="M169.6,320.7H42.4c-5.8,0-10.6-4.7-10.6-10.6V285h10.6v19.8c0,2.9,2.4,5.3,5.3,5.3h116.7
				c2.9,0,5.3-2.4,5.3-5.3v-20.2h10.6v25.4C180.2,316,175.5,320.7,169.6,320.7z"/>
		</g>
	</g>
	<g>
		<path class="st0" d="M304.7,190.6l-23.9,0c-3.3,0-6-2.7-6-6l0-49.7l-25.8,0c-5.3,0-8-6.4-4.2-10.2L288.5,81c2.3-2.3,6.1-2.3,8.5,0
			l43.7,43.8c3.8,3.8,1.1,10.2-4.2,10.2l-25.8,0l0,49.7C310.6,188,308,190.7,304.7,190.6z"/>
		<g>
			<path class="st1" d="M357.6,217.7H230.4c-5.8,0-10.6-4.7-10.6-10.6V182h10.6v19.8c0,2.9,2.4,5.3,5.3,5.3h116.7
				c2.9,0,5.3-2.4,5.3-5.3v-20.2h10.6v25.4C368.2,213,363.5,217.7,357.6,217.7z"/>
		</g>
	</g>
</g>
<g>
</g>
<g>
</g>
<g>
</g>
<g>
</g>
<g>
</g>
<g>
</g>
<g>
</g>
<g>
</g>
<g>
</g>
<g>
</g>
<g>
</g>
<g>
</g>
<g>
</g>
<g>
</g>
<g>
</g>
</svg>
