<?xml version="1.0" encoding="utf-8"?>
<!-- Generator: Adobe Illustrator 25.3.1, SVG Export Plug-In . SVG Version: 6.00 Build 0)  -->
<svg version="1.1" id="Layer_1" xmlns="http://www.w3.org/2000/svg" xmlns:xlink="http://www.w3.org/1999/xlink" x="0px" y="0px"
	 viewBox="0 0 400 400" style="enable-background:new 0 0 400 400;" xml:space="preserve">
<style type="text/css">
	.st0{fill:none;stroke:#2C3E50;stroke-width:3;stroke-miterlimit:10;}
	.st1{fill:#5A8FFF;}
</style>
<g>
	<path class="st0" d="M231.7,87.6h68.7c2.8,0,5.6,0.3,8.3,1c11.9,3.1,39.7,15,39.7,57.9c0,0.1,0,0.3,0,0.4
		c-0.1,18.4-8.7,35.2-22.1,43.4c-3.9,2.4-8.8,5.2-15,8.3c-5.4,2.7-11.2,4-17.1,3.7c-100-5.1-173.9-4.6-198,0.4
		c-3.8,0.8-12.9,3.1-22.3,10.9c-4.4,3.7-22.1,19.6-22.3,44c-0.1,8.7,2.1,15.2,3.6,19.5c4.2,12,10.9,20.6,17.3,26.5
		c6.9,6.4,15.3,9.8,23.9,9.9c26.7,0.3,53.5,0.5,80.2,0.8"/>
	<circle class="st0" cx="181.7" cy="87.1" r="49.3"/>
	<circle class="st0" cx="225.6" cy="312.9" r="49.3"/>
	<path class="st1" d="M182.5,84.6c8.5,0,15.3-6.9,15.3-15.3c0-8.5-6.9-15.3-15.3-15.3c-8.5,0-15.3,6.9-15.3,15.3
		C167.2,77.7,174,84.6,182.5,84.6z M193.9,88.5l-5.7,22.9l-3.8-16.3l3.8-6.7h-11.5l3.8,6.7l-3.8,16.3L171,88.5
		c-8.5,0.4-15.3,7.4-15.3,16v5c0,3.2,2.6,5.7,5.7,5.7h42.1c3.2,0,5.7-2.6,5.7-5.7v-5C209.2,95.9,202.4,88.9,193.9,88.5L193.9,88.5z"
		/>
	<path class="st1" d="M218.5,333.7l-17.4-17.4c-1-1-1-2.7,0-3.8l3.8-3.8c1-1,2.7-1,3.8,0l11.7,11.7l25.1-25.1c1-1,2.7-1,3.8,0
		l3.8,3.8c1,1,1,2.7,0,3.8l-30.7,30.7C221.3,334.8,219.6,334.8,218.5,333.7L218.5,333.7z"/>
</g>
<g>
</g>
<g>
</g>
<g>
</g>
<g>
</g>
<g>
</g>
<g>
</g>
<g>
</g>
<g>
</g>
<g>
</g>
<g>
</g>
<g>
</g>
<g>
</g>
<g>
</g>
<g>
</g>
<g>
</g>
</svg>
