<?xml version="1.0" encoding="utf-8"?>
<!-- Generator: Adobe Illustrator 27.1.0, SVG Export Plug-In . SVG Version: 6.00 Build 0)  -->
<svg version="1.1" id="Layer_1" xmlns="http://www.w3.org/2000/svg" xmlns:xlink="http://www.w3.org/1999/xlink" x="0px" y="0px"
	 viewBox="0 0 150 150" style="enable-background:new 0 0 150 150;" xml:space="preserve">
<style type="text/css">
	.st0{fill:#2C3E50;}
</style>
<path class="st0" d="M60.76,101.35v15.79c0,5.22,4.25,9.47,9.47,9.47h12.63c5.22,0,9.47-4.25,9.47-9.47v-15.79
	c5.22,0,9.47-4.25,9.47-9.47V79.25c0-6.81-4.36-12.58-10.42-14.79c1.57-2.61,2.53-5.63,2.53-8.9c0-9.58-7.79-17.37-17.37-17.37
	s-17.37,7.79-17.37,17.37c0,3.26,0.96,6.28,2.53,8.9c-6.06,2.21-10.42,7.97-10.42,14.79v12.63C51.29,97.1,55.54,101.35,60.76,101.35
	z M76.55,44.51c6.1,0,11.05,4.95,11.05,11.05s-4.95,11.05-11.05,11.05S65.5,61.67,65.5,55.56S70.44,44.51,76.55,44.51z M57.6,79.25
	c0-5.08,4.03-9.21,9.06-9.43c2.81,1.95,6.21,3.12,9.88,3.12c3.67,0,7.07-1.16,9.88-3.12c5.03,0.22,9.06,4.35,9.06,9.43v12.63
	c0,1.74-1.42,3.16-3.16,3.16h-6.32v22.1c0,1.74-1.42,3.16-3.16,3.16H70.23c-1.74,0-3.16-1.42-3.16-3.16v-22.1h-6.32
	c-1.74,0-3.16-1.42-3.16-3.16V79.25z"/>
<path class="st0" d="M99.03,143.87H53.77c-1.76,0-2.96-1.67-2.29-3.2c1.39-3.17,2.78-6.34,4.16-9.52c0.38-0.87,1.29-1.44,2.29-1.44
	H94.7c0.99,0,1.89,0.56,2.28,1.41c1.44,3.17,2.88,6.34,4.32,9.52C102,142.17,100.8,143.87,99.03,143.87z"/>
<path class="st0" d="M18.65,103.73v5.66c0,3.85,3.13,6.99,6.99,6.99h7.98c3.85,0,6.99-3.13,6.99-6.99v-5.66
	c2.36-1.12,3.99-3.53,3.99-6.31v-8.98c0-3.59-2.13-6.67-5.18-8.11c1.37-1.95,2.19-4.31,2.19-6.86c0-6.6-5.37-11.98-11.98-11.98
	s-11.98,5.37-11.98,11.98c0,2.56,0.82,4.92,2.19,6.86c-3.05,1.44-5.18,4.52-5.18,8.11v8.98C14.66,100.2,16.3,102.61,18.65,103.73z
	 M29.63,67.48c3.31,0,5.99,2.68,5.99,5.99s-2.68,5.99-5.99,5.99s-5.99-2.68-5.99-5.99S26.33,67.48,29.63,67.48z M20.65,88.44
	c0-1.65,1.34-2.99,2.99-2.99h11.98c1.65,0,2.99,1.34,2.99,2.99v8.98c0,0.55-0.45,1-1,1h-2.99v10.98c0,0.55-0.45,1-1,1h-7.98
	c-0.55,0-1-0.45-1-1V98.42h-2.99c-0.55,0-1-0.45-1-1V88.44z"/>
<path class="st0" d="M112.69,104.49v5.96c0,4.05,3.29,7.35,7.35,7.35h8.39c4.05,0,7.35-3.29,7.35-7.35v-5.96
	c2.48-1.18,4.2-3.71,4.2-6.64v-9.44c0-3.77-2.24-7.01-5.45-8.53c1.44-2.05,2.3-4.53,2.3-7.21c0-6.94-5.65-12.59-12.59-12.59
	c-6.94,0-12.59,5.65-12.59,12.59c0,2.69,0.86,5.17,2.3,7.21c-3.21,1.51-5.45,4.75-5.45,8.53v9.44
	C108.49,100.78,110.21,103.31,112.69,104.49z M124.23,66.37c3.48,0,6.3,2.82,6.3,6.3c0,3.48-2.82,6.3-6.3,6.3
	c-3.48,0-6.3-2.82-6.3-6.3C117.94,69.19,120.76,66.37,124.23,66.37z M114.79,88.41c0-1.74,1.41-3.15,3.15-3.15h12.59
	c1.73,0,3.15,1.41,3.15,3.15v9.44c0,0.58-0.47,1.05-1.05,1.05h-3.15v11.54c0,0.58-0.47,1.05-1.05,1.05h-8.39
	c-0.58,0-1.05-0.47-1.05-1.05V98.9h-3.15c-0.58,0-1.05-0.47-1.05-1.05V88.41z"/>
<path class="st0" d="M90.86,15.39l-7.89-1.15l-3.53-7.15c-0.63-1.27-2.46-1.29-3.1,0l-3.53,7.15l-7.89,1.15
	c-1.41,0.21-1.98,1.95-0.96,2.95l5.71,5.56l-1.35,7.85c-0.24,1.42,1.25,2.48,2.5,1.82l7.06-3.71l7.06,3.71
	c1.25,0.66,2.75-0.4,2.5-1.82l-1.35-7.85l5.71-5.56C92.84,17.34,92.27,15.6,90.86,15.39L90.86,15.39z M82.34,22.47l1.05,6.12
	l-5.49-2.89l-5.49,2.89l1.05-6.12L69,18.14l6.14-0.89l2.75-5.57l2.75,5.57l6.14,0.89L82.34,22.47L82.34,22.47z"/>
<g>
</g>
<g>
</g>
<g>
</g>
<g>
</g>
<g>
</g>
<g>
</g>
<g>
</g>
<g>
</g>
<g>
</g>
<g>
</g>
<g>
</g>
<g>
</g>
<g>
</g>
<g>
</g>
<g>
</g>
</svg>
