<?xml version="1.0" encoding="utf-8"?>
<!-- Generator: Adobe Illustrator 27.1.0, SVG Export Plug-In . SVG Version: 6.00 Build 0)  -->
<svg version="1.1" id="Layer_1" xmlns="http://www.w3.org/2000/svg" xmlns:xlink="http://www.w3.org/1999/xlink" x="0px" y="0px"
	 viewBox="0 0 150 150" style="enable-background:new 0 0 150 150;" xml:space="preserve">
<style type="text/css">
	.st0{fill:#2C3E50;}
</style>
<path class="st0" d="M137.58,90.46c-2.22-1.99-5.12-3.1-8.15-3.1c-2.89,0-5.74,1-8.01,2.82l-14.26,11.41
	c-0.44,0.35-0.97,0.53-1.55,0.53h-9.63c1.07-2.22,1.5-4.79,1.11-7.48c-0.93-6.46-6.85-11.04-13.38-11.04H50.29
	c-4.82,0-9.49,1.55-13.34,4.45l-8.89,6.67h-17.9c-1.02,0-1.85,0.83-1.85,1.85v3.7c0,1.02,0.83,1.85,1.85,1.85h20.37l10.86-8.15
	c2.57-1.92,5.7-2.96,8.89-2.96h33.97c3.08,0,5.56,2.48,5.56,5.56c0,3.08-2.48,5.56-5.56,5.56H63.88c-2.04,0-3.7,1.67-3.7,3.7
	s1.67,3.7,3.7,3.7h41.72c2.25,0,4.42-0.76,6.18-2.15L126.05,96c0.97-0.79,2.2-1.2,3.38-1.2c1.16,0,2.29,0.39,3.2,1.2
	c2.34,2.11,2.15,5.67-0.21,7.55l-23.34,18.68c-1.76,1.41-3.94,2.15-6.18,2.15H10.17c-1.02,0-1.85,0.83-1.85,1.85v3.7
	c0,1.02,0.83,1.85,1.85,1.85h92.73c3.94,0,7.73-1.34,10.79-3.8l23.36-18.68c2.82-2.27,4.51-5.65,4.63-9.26
	C141.79,96.44,140.29,92.92,137.58,90.46z"/>
<path class="st0" d="M108.17,42.43l-8.7-2.48c-1.18-0.34-2.14-1.29-2.33-2.51c-0.29-1.9,1.18-3.55,3.03-3.55h5.52
	c1.19,0,2.36,0.37,3.32,1.05c0.48,0.34,1.12,0.28,1.53-0.13l1.71-1.71c0.51-0.51,0.46-1.36-0.11-1.8c-1.85-1.43-4.09-2.2-6.45-2.2
	h-0.21v-3.59c0-0.66-0.54-1.2-1.2-1.2h-2.39c-0.66,0-1.2,0.54-1.2,1.2v3.59h-0.19c-3.68,0-7.08,2.38-7.96,5.95
	c-1.04,4.2,1.51,8.32,5.46,9.45l8.7,2.48c1.18,0.34,2.14,1.29,2.33,2.51c0.29,1.9-1.18,3.55-3.03,3.55h-5.52
	c-1.19,0-2.36-0.37-3.32-1.05c-0.48-0.34-1.12-0.28-1.53,0.13l-1.71,1.71c-0.51,0.51-0.46,1.36,0.11,1.8
	c1.84,1.43,4.08,2.2,6.45,2.2h0.21v3.59c0,0.66,0.54,1.2,1.2,1.2h2.39c0.66,0,1.2-0.54,1.2-1.2v-3.59h0.19
	c3.68,0,7.08-2.38,7.96-5.95C114.67,47.68,112.12,43.56,108.17,42.43L108.17,42.43z"/>
<path class="st0" d="M103.09,11.66c-17.57,0-31.81,14.24-31.81,31.81s14.24,31.81,31.81,31.81s31.81-14.24,31.81-31.81
	S120.66,11.66,103.09,11.66z M103.09,69.13c-14.17,0-25.65-11.48-25.65-25.65s11.48-25.65,25.65-25.65s25.65,11.48,25.65,25.65
	S117.27,69.13,103.09,69.13z"/>
<g>
</g>
<g>
</g>
<g>
</g>
<g>
</g>
<g>
</g>
<g>
</g>
<g>
</g>
<g>
</g>
<g>
</g>
<g>
</g>
<g>
</g>
<g>
</g>
<g>
</g>
<g>
</g>
<g>
</g>
</svg>
