<?xml version="1.0" encoding="utf-8"?>
<!-- Generator: Adobe Illustrator 26.0.1, SVG Export Plug-In . SVG Version: 6.00 Build 0)  -->
<svg version="1.1" id="Layer_1" xmlns="http://www.w3.org/2000/svg" xmlns:xlink="http://www.w3.org/1999/xlink" x="0px" y="0px"
	 viewBox="0 0 400 400" style="enable-background:new 0 0 400 400;" xml:space="preserve">
<style type="text/css">
	.st0{fill:none;stroke:#2C3E50;stroke-width:3;}
	.st1{fill:#5A8FFF;}
	.st2{fill:none;stroke:#2C3E50;stroke-width:3;stroke-linecap:round;}
	.st3{fill:none;stroke:#FFFFFF;stroke-width:3;stroke-miterlimit:10;}
</style>
<g>
	<g>
		<g>
			<path class="st0" d="M341.1,358.1H58.3c-5.2,0-9.5-4.3-9.5-9.5c0.1-63.1,0.1-126.3,0.2-189.4c0-3,1.4-5.8,3.8-7.6
				c47.1-35.7,94.2-71.3,141.3-107c3.4-2.6,8.1-2.6,11.5,0c47.2,35.7,94.4,71.4,141.6,107.1c2.4,1.8,3.8,4.6,3.8,7.6
				c-0.1,63.1-0.2,126.2-0.2,189.3C350.6,353.8,346.3,358.1,341.1,358.1z"/>
			<path class="st1" d="M200.2,263.5L96.8,188.6c0.1-34.3,0.1-68.6,0.2-102.9c0-3.5,2.8-6.3,6.3-6.3h199.8c3.5,0,6.3,2.8,6.3,6.3
				v98.7C273,210.8,236.6,237.1,200.2,263.5z"/>
			<path class="st2" d="M50.9,155.2c49.7,36.1,99.5,72.3,149.2,108.4c49.7-36,99.5-72.1,149.2-108.1"/>
			<path class="st2" d="M67.1,337.7c37.5-21.6,74.9-43.3,112.4-64.9"/>
			<path class="st2" d="M219.4,272.6c36.7,22.9,73.4,45.8,110.1,68.7"/>
		</g>
	</g>
</g>
<line class="st3" x1="124.7" y1="113.6" x2="280.6" y2="113.6"/>
<line class="st3" x1="124.7" y1="142.1" x2="280.6" y2="142.1"/>
<line class="st3" x1="193" y1="178.6" x2="280.6" y2="178.6"/>
<rect x="124.7" y="162.7" class="st3" width="44.5" height="37.9"/>
<g>
</g>
<g>
</g>
<g>
</g>
<g>
</g>
<g>
</g>
<g>
</g>
<g>
</g>
<g>
</g>
<g>
</g>
<g>
</g>
<g>
</g>
<g>
</g>
<g>
</g>
<g>
</g>
<g>
</g>
</svg>
