<?xml version="1.0" encoding="utf-8"?>
<!-- Generator: Adobe Illustrator 26.0.3, SVG Export Plug-In . SVG Version: 6.00 Build 0)  -->
<svg version="1.1" id="Layer_1" xmlns="http://www.w3.org/2000/svg" xmlns:xlink="http://www.w3.org/1999/xlink" x="0px" y="0px"
	 viewBox="0 0 70 70" style="enable-background:new 0 0 70 70;" xml:space="preserve">
<style type="text/css">
	.st0{fill:#558BFE;}
	.st1{fill:none;stroke:#2C3E50;stroke-miterlimit:10;}
</style>
<path class="st0" d="M33.02,25.59H5.1c-1.44,0-2.6-1.16-2.6-2.6V5.1c0-1.44,1.16-2.6,2.6-2.6h27.92c1.44,0,2.6,1.16,2.6,2.6v17.89
	C35.62,24.42,34.45,25.59,33.02,25.59z"/>
<circle class="st1" cx="19.06" cy="58.98" r="9.27"/>
<path class="st1" d="M57.35,67.53l-9.49-9.49c-0.43-0.43-0.43-1.12,0-1.55l9.49-9.49c0.43-0.43,1.12-0.43,1.55,0l9.49,9.49
	c0.43,0.43,0.43,1.12,0,1.55l-9.49,9.49C58.48,67.96,57.78,67.96,57.35,67.53z"/>
<line class="st1" x1="19.06" y1="46.22" x2="19.06" y2="28.76"/>
<path class="st1" d="M38.55,14.04h19.26c0.18,0,0.32,0.14,0.32,0.31v28.32"/>
<path class="st1" d="M54.78,40.47L57.93,43c0.11,0.09,0.28,0.09,0.4,0l3.31-2.53"/>
<path class="st1" d="M15.63,44.05l3.15,2.53c0.11,0.09,0.28,0.09,0.4,0l3.31-2.53"/>
<g>
</g>
<g>
</g>
<g>
</g>
<g>
</g>
<g>
</g>
<g>
</g>
</svg>
