<?xml version="1.0" encoding="utf-8"?>
<!-- Generator: Adobe Illustrator 27.1.0, SVG Export Plug-In . SVG Version: 6.00 Build 0)  -->
<svg version="1.1" id="Layer_1" xmlns="http://www.w3.org/2000/svg" xmlns:xlink="http://www.w3.org/1999/xlink" x="0px" y="0px"
	 viewBox="0 0 150 150" style="enable-background:new 0 0 150 150;" xml:space="preserve">
<style type="text/css">
	.st0{fill:#2C3E50;}
</style>
<g>
	<path class="st0" d="M74.32,47.63c-15.31,0-27.71,12.4-27.71,27.71s12.4,27.71,27.71,27.71s27.71-12.4,27.71-27.71
		S89.63,47.63,74.32,47.63z M74.32,95.81c-11.31,0-20.47-9.16-20.47-20.47s9.16-20.47,20.47-20.47s20.47,9.16,20.47,20.47
		S85.63,95.81,74.32,95.81z"/>
	<path class="st0" d="M121.03,107.83c-10.3,0-18.65,8.35-18.65,18.65s8.35,18.65,18.65,18.65s18.65-8.35,18.65-18.65
		S131.33,107.83,121.03,107.83z M121.03,139.01c-6.92,0-12.53-5.61-12.53-12.53c0-6.92,5.61-12.53,12.53-12.53
		c6.92,0,12.53,5.61,12.53,12.53C133.56,133.4,127.95,139.01,121.03,139.01z"/>
	<path class="st0" d="M32.21,103.06c-8.78,0-15.89,7.11-15.89,15.89s7.11,15.89,15.89,15.89s15.89-7.11,15.89-15.89
		S40.99,103.06,32.21,103.06z M32.21,128.7c-5.39,0-9.75-4.36-9.75-9.75s4.36-9.75,9.75-9.75s9.75,4.36,9.75,9.75
		S37.6,128.7,32.21,128.7z"/>
	<path class="st0" d="M74.32,4.87c-8.78,0-15.89,7.11-15.89,15.89s7.11,15.89,15.89,15.89s15.89-7.11,15.89-15.89
		S83.1,4.87,74.32,4.87z M74.32,30.83c-5.56,0-10.07-4.5-10.07-10.07s4.5-10.07,10.07-10.07c5.56,0,10.07,4.5,10.07,10.07
		S79.88,30.83,74.32,30.83z"/>
	<g>
		<rect x="71.32" y="33.2" class="st0" width="6" height="17.06"/>
	</g>
	<g>
		
			<rect x="37.67" y="97.1" transform="matrix(0.6575 -0.7534 0.7534 0.6575 -58.946 70.5237)" class="st0" width="20.86" height="6"/>
	</g>
	<g>
		
			<rect x="98.18" y="89.7" transform="matrix(0.7389 -0.6738 0.6738 0.7389 -43.4171 95.2332)" class="st0" width="6" height="27.89"/>
	</g>
</g>
<g>
</g>
<g>
</g>
<g>
</g>
<g>
</g>
<g>
</g>
<g>
</g>
<g>
</g>
<g>
</g>
<g>
</g>
<g>
</g>
<g>
</g>
<g>
</g>
<g>
</g>
<g>
</g>
<g>
</g>
</svg>
