<?xml version="1.0" encoding="utf-8"?>
<!-- Generator: Adobe Illustrator 27.9.0, SVG Export Plug-In . SVG Version: 6.00 Build 0)  -->
<svg version="1.1" id="Layer_1" xmlns="http://www.w3.org/2000/svg" xmlns:xlink="http://www.w3.org/1999/xlink" x="0px" y="0px"
	 viewBox="0 0 660 480" enable-background="new 0 0 660 480" xml:space="preserve">
<g>
	<g>
		<path fill="#FFFFFF" d="M273.2,32c0-8.8-7.2-16-16-16h-224c-8.8,0-16,7.2-16,16v416c0,8.8,7.2,16,16,16h224c8.8,0,16-7.2,16-16V32
			z"/>
		<path fill="#2C3E50" d="M257.2,466.5h-224c-10.2,0-18.5-8.3-18.5-18.5V32c0-10.2,8.3-18.5,18.5-18.5h224
			c10.2,0,18.5,8.3,18.5,18.5v416C275.8,458.2,267.5,466.5,257.2,466.5z M33.2,18.5c-7.4,0-13.5,6.1-13.5,13.5v416
			c0,7.4,6.1,13.5,13.5,13.5h224c7.4,0,13.5-6.1,13.5-13.5V32c0-7.4-6.1-13.5-13.5-13.5H33.2z"/>
	</g>
	<path fill="#5A8FFF" d="M345.2,218.6h128.6V90H345.2V218.6z M366.7,111.4h85.7v85.7h-85.7V111.4z M516.7,90v128.6h128.6V90H516.7z
		 M623.8,197.1h-85.7v-85.7h85.7V197.1z M345.2,390h128.6V261.4H345.2V390z M366.7,282.9h85.7v85.7h-85.7V282.9z M388.1,132.9H431
		v42.9h-42.9V132.9z M602.4,175.7h-42.9v-42.9h42.9V175.7z M388.1,304.3H431v42.9h-42.9V304.3z M623.8,261.4h21.4v85.7h-85.7v-21.4
		h-21.4V390h-21.4V261.4H581v21.4h42.9V261.4z M623.8,368.6h21.4V390h-21.4V368.6z M581,368.6h21.4V390H581V368.6z"/>
	<circle fill="#5A8FFF" cx="144.9" cy="400.2" r="32"/>
</g>
</svg>
