<?xml version="1.0" encoding="utf-8"?>
<!-- Generator: Adobe Illustrator 25.0.0, SVG Export Plug-In . SVG Version: 6.00 Build 0)  -->
<svg version="1.1" id="Layer_1" xmlns="http://www.w3.org/2000/svg" xmlns:xlink="http://www.w3.org/1999/xlink" x="0px" y="0px"
	 viewBox="0 0 400 400" style="enable-background:new 0 0 400 400;" xml:space="preserve">
<style type="text/css">
	.st0{fill:#5A8FFF;}
	.st1{fill:none;stroke:#2C3E50;stroke-width:3;stroke-miterlimit:10;}
</style>
<g>
	<rect x="156.8" y="329.7" class="st0" width="78" height="39.4"/>
	<g>
		<path class="st1" d="M324,329.6H61.2c-11,0-20-9-20-20V161.1c0-11,9-20,20-20H324c11,0,20,9,20,20v148.5
			C344,320.6,335,329.6,324,329.6z"/>
		<circle class="st0" cx="122.2" cy="218.1" r="20.1"/>
		<circle class="st0" cx="262.7" cy="218.1" r="20.1"/>
		<line class="st1" x1="150.6" y1="286.9" x2="240.1" y2="286.9"/>
		<path class="st1" d="M257.8,141H137v-23.9c0-4.4,3.6-8,8-8h104.8c4.4,0,8,3.6,8,8V141z"/>
		<line class="st1" x1="364.6" y1="81.5" x2="364.6" y2="197.9"/>
		<circle class="st0" cx="366.2" cy="58" r="27.2"/>
	</g>
	<path class="st1" d="M378.7,233.6c0.1,25.7-15.3,46.8-34,46.8c-0.1-31.2-0.1-62.3-0.2-93.5C363.2,186.8,378.7,207.9,378.7,233.6z"
		/>
	<path class="st1" d="M6.6,233.5c0.1-25.7,15.6-46.7,34.3-46.6c-0.1,31.2-0.3,62.3-0.4,93.5C21.8,280.3,6.5,259.2,6.6,233.5z"/>
</g>
<g>
</g>
<g>
</g>
<g>
</g>
<g>
</g>
<g>
</g>
<g>
</g>
<g>
</g>
<g>
</g>
<g>
</g>
<g>
</g>
<g>
</g>
<g>
</g>
<g>
</g>
<g>
</g>
<g>
</g>
</svg>
