<?xml version="1.0" encoding="utf-8"?>
<!-- Generator: Adobe Illustrator 27.1.0, SVG Export Plug-In . SVG Version: 6.00 Build 0)  -->
<svg version="1.1" id="Layer_1" xmlns="http://www.w3.org/2000/svg" xmlns:xlink="http://www.w3.org/1999/xlink" x="0px" y="0px"
	 viewBox="0 0 150 150" style="enable-background:new 0 0 150 150;" xml:space="preserve">
<style type="text/css">
	.st0{fill:#2C3E50;}
</style>
<path class="st0" d="M128.36,31.32L79.69,11.04c-2.99-1.24-6.36-1.24-9.35,0L21.66,31.32c-4.54,1.88-7.5,6.31-7.5,11.23
	c0,50.32,29.03,85.1,56.15,96.41c2.99,1.24,6.36,1.24,9.35,0c21.73-9.05,56.18-40.31,56.18-96.41
	C135.84,37.63,132.88,33.2,128.36,31.32z M76.57,131.48c-1.01,0.41-2.13,0.41-3.12,0c-24.82-9.84-51.18-44.31-51.18-88.93
	c0-1.65,0.99-3.12,2.48-3.75l48.67-20.28c0.99-0.41,2.13-0.41,3.12,0l48.67,20.28c1.52,0.63,2.51,2.1,2.48,3.75
	C127.73,87.17,101.36,121.65,76.57,131.48z M111.1,49.09c-1.19-1.19-3.12-1.19-4.31-0.03L65.37,90.16L47.87,72.54
	c-1.19-1.19-3.12-1.19-4.31-0.03l-2.15,2.15c-1.19,1.19-1.19,3.12-0.03,4.31l21.78,21.95c1.19,1.19,3.12,1.19,4.31,0.03l45.76-45.38
	c1.19-1.19,1.19-3.12,0.03-4.31L111.1,49.09z"/>
<g>
</g>
<g>
</g>
<g>
</g>
<g>
</g>
<g>
</g>
<g>
</g>
<g>
</g>
<g>
</g>
<g>
</g>
<g>
</g>
<g>
</g>
<g>
</g>
<g>
</g>
<g>
</g>
<g>
</g>
</svg>
