<?xml version="1.0" encoding="UTF-8"?><svg id="Layer_2" xmlns="http://www.w3.org/2000/svg" viewBox="0 0 140 110"><defs><style>.cls-1{fill:#3978fe;}.cls-2{fill:none;stroke:#2c3e50;stroke-miterlimit:10;}</style></defs><g id="Layer_3"><path class="cls-1" d="m139.1,80.2c-.4-2.3-.9-4.6-1.4-6.9-.1-.3-.2-.8-.2-1.1-.6-1.9-1-3.8-1.6-5.7-1-2.2-2.9-3.2-5-3.9-1.3-.3-2.6-.7-3.9-1.1-.8-.2-1.3,0-1.8.7-.2.4-.7.9-1,1.3-.6,1-1.1,2-1.7,3-1.2,2.7-2.6,5.3-3.6,8.1,0-2.8.4-5.6,1.2-8.2.2-.9.4-1.8.7-2.7-1-.3-1.4,0-1.9.9-1.1,2.4-2,5-3,7.4,0-3.6.7-7,2-10.3,0,0,0-.2,0-.2-.2,0-.6,0-.8,0-.9.4-1.8.9-2.6,1.3-1.3.8-2.6,1.7-3.1,3.2-.3,1.3-.8,2.4-1.3,3.7-.3,1.2-.8,2.3-1.4,3.3-.9,2.3-2,4.7-3.2,6.9-.3.9-.8,1.7-1.3,2.4-.4.9-1,1.6-1.9,2-1.9,1.2-3.8,2.4-5.8,3.6-1.9,1.1-3.7,2.1-5.6,3.2,1,.7,2.1,1.1,2.8,2.1.8.8,1.3,1.9,1.3,3s.6,1.3,1.4.9c2.3-1.1,4.6-2.2,6.9-3.3.2-.2.4-.3.7-.4,1.8-1.2,3.7-2.3,5.4-3.8.2,1.4,0,2.7-.2,4-.2,2.3-.3,4.6-.6,6.9,0,1.2,0,2.4-.2,3.6v.4c.3,1,1.2.2,1.8.6.8,0,1.6,0,2.3,0,1,0,2,0,3,0h1.7c2.2,0,4.6,0,6.8,0,1.4,0,2.4-.9,2.8-2.4.2-.8.4-1.6.7-2.2.4-2.3.9-4.6,1.4-6.9,0-.7.2-1.3.3-2,.1-1.1.3-2.3.4-3.4,0-.4,0-.9.1-1.3,0-1.6.2-3,.3-4.6v-5.2c.3.9.7,1.9.6,2.9.4.2.3.8.3,1.2.9,3.2.7,6.3,0,9.5-.2,1-.2,2-.6,3-.3,2.3-.9,4.7-1.6,6.9-.1.7-.3,1.3-.4,2-.6,1.7-.4,3.2.8,4.6l1.6.8h1.3c.6-.3,1-.7,1.6-1,1.1-1.3,1.3-3,1.9-4.6.2-.6.4-1.2.7-1.8.4-1.3.8-2.8,1.3-4.1.2-.9.4-1.9.8-2.8.4-2.2,1-4.6,1.4-6.8v-.9c-.2-2-.4-4-.7-5.9h0Z"/><path class="cls-1" d="m91.1,94c-.4,0-.9-.3-1.3-.7-2.4-1.2-4.8-2.6-7.1-4.1-1-.4-1.9-1.1-2.8-1.8-1.3-.8-2.7-1.8-3.9-2.8-1.3-1.1-1.7-2.7-2.3-4.1-1.1-2.3-2.1-4.8-3.2-7.1-.7-1.3-1.1-2.8-1.6-4.1-.4-.9-.9-1.8-1.2-2.7-.7-1-1.7-1.6-2.9-1.9-.9-.2-1.7-.6-2.6-.9h-.7c-1.2-.3-2.2-.4-3.3.3-.8.6-1.8.7-2.8.6-1.1,0-2.2-.2-3-1.1-.3-.3-.6,0-.8,0-.9.3-1.9.7-2.8,1-1,.6-2.1,1-2.8,2-1.3,3-2.9,5.9-4.6,8.7,0,0,0,.2-.2.3,0,.2-.2.3-.3.6-.8,1.3-1.4,2.8-2.2,4.1-1.2,2.1-1.4,4.4-1.4,6.8,0,2.3.3,4.6.4,6.9.3,2.3.6,4.6.9,6.9,0,1,.3,2.1.4,3.1,0,1.6.7,2.8,1.8,3.7.7,0,1.2.2,1.9.3.3,0,.7-.2,1.1-.3,1.4-1,1.8-2.6,1.7-4.2,0-.9,0-1.8,0-2.7,0-2.2-.2-4.6,0-6.8-.2-2.3,0-4.6,0-6.9-.2-1.7.3-3,1.3-4.4.3,1.6-.2,3,.2,4.3,0,2.3.3,4.6.2,6.9.2,2.3.2,4.6.2,6.8.2,1.4.2,3,.2,4.4.2,0,.6,0,.9.2,2.3,0,4.6,0,6.9,0s4.6,0,6.9,0h6.9v-2.1c0-.9-.2-1.7,0-2.6-.2-1.7-.2-3.3-.2-5-.2-.7,0-1.3-.2-2.1,0-1.8-.2-3.4-.3-5.6.4.8.8,1.2,1,1.7,2,1.3,4,2.8,6,4.1.2,0,.4.2.7.3,1.9,1,3.8,2,5.7,3,.2,0,.4.2.4.3,0,1,.9,1.9,1,2.9.4,0,.8.2,1.1.4,1.2.7,2.4.8,3.6,0,.7-.3,1.2-.3,1.9,0,.6,0,1.2-.3,1.8-.4.8-.8,1.4-1.4,1.7-2.7.2-1.9-.8-3-2.1-3.9h0v.4Z"/><path class="cls-1" d="m55.6,40.6c-2.7,0-4.9.7-6.8,2.6-.6.8-1.2,1.8-1.6,2.8-.7,2.4,0,4.7.9,6.8.2.4.4.9.7,1.3,1.2,2.1,2.7,4,4.6,5.4.8.3,1.4.6,2.2.9,1.2,0,2.3-.2,3.3-.9,1.3-1.3,2.1-3.1,2.7-4.9.7-2.3.9-4.7.8-7.1,0-3.6-2.4-5.9-6.9-7.1h0v.2Z"/><path class="cls-1" d="m117,55.1c.2.2.2.4.2.7,0,0,0,0,.2.2.2.2.4.6.6.8,1.6,2,3.1,2.3,5.9,1.4,2.2-1.3,3.7-3.3,5-5.4.6-1.3,1.1-2.6,1.7-3.8.1-1,.3-2,.4-3-.1-.7-.2-1.2-.4-1.9-.7-2.1-2.2-3.7-4.2-4.7-.9-.2-1.7-.4-2.4-.7-1.4,0-2.8.2-4.1.7-1,.6-1.9,1.2-2.7,2.1-1,1.3-1.6,2.8-1.7,4.6,0,2.3.2,4.6.8,6.9.2.8.6,1.4.8,2.2h0c0,0-.1,0-.1,0Z"/></g><path class="cls-2" d="m69.1,39v-4.8c8.2-2.3,10.6-11.2,6.9-17.2l-8.2-13.1c-.8-1.1-2.1-1.9-3.5-1.9H13.3c-1.3,0-2.6.8-3.3,1.9L1.8,17c-3.8,6-1.7,15.4,5.8,17.5v28.7c0,2.4,1.8,4.4,4,4.4l29.4-1M7.6,34.5c.8.2,2.5.3,3.3.3,3.7,0,7-2,9.3-4.6,2.3,2.5,5.6,4.2,9.3,4.2s7-1.6,9.3-4.2c2.3,2.5,5.6,4.2,9.3,4.2s7-1.6,9.3-4.2c2.3,2.5,5.6,4.1,9.3,4.2s1.6,0,2.3-.2M7.6,46.5h35.2"/></svg>