<?xml version="1.0" encoding="utf-8"?>
<!-- Generator: Adobe Illustrator 27.1.0, SVG Export Plug-In . SVG Version: 6.00 Build 0)  -->
<svg version="1.1" id="Layer_1" xmlns="http://www.w3.org/2000/svg" xmlns:xlink="http://www.w3.org/1999/xlink" x="0px" y="0px"
	 viewBox="0 0 150 150" style="enable-background:new 0 0 150 150;" xml:space="preserve">
<style type="text/css">
	.st0{fill:#2C3E50;}
</style>
<path class="st0" d="M103.56,101.56v7.87c15.88,2.15,26.52,6.02,26.52,10.45c0,6.76-24.66,12.24-55.08,12.24
	s-55.08-5.48-55.08-12.24c0-4.43,10.64-8.3,26.52-10.45v-7.87c-21.72,3.31-36.72,10.26-36.72,18.32c0,11.27,29.23,20.4,65.28,20.4
	s65.28-9.13,65.28-20.4C140.28,111.82,125.28,104.87,103.56,101.56z M54.6,91.32v20.4c0,6.75,5.49,12.24,12.24,12.24h16.32
	c6.75,0,12.24-5.49,12.24-12.24v-20.4c6.75,0,12.24-5.49,12.24-12.24V62.76c0-8.8-5.64-16.26-13.47-19.11
	c2.03-3.37,3.27-7.27,3.27-11.49C97.44,19.79,87.37,9.72,75,9.72S52.56,19.79,52.56,32.16c0,4.22,1.24,8.12,3.27,11.49
	C48,46.51,42.36,53.96,42.36,62.76v16.32C42.36,85.83,47.85,91.32,54.6,91.32z M75,17.88c7.89,0,14.28,6.39,14.28,14.28
	S82.89,46.44,75,46.44s-14.28-6.39-14.28-14.28S67.11,17.88,75,17.88z M50.52,62.76c0-6.57,5.21-11.9,11.71-12.19
	C65.86,53.1,70.25,54.6,75,54.6s9.14-1.5,12.77-4.03c6.5,0.28,11.71,5.62,11.71,12.19v16.32c0,2.25-1.83,4.08-4.08,4.08h-8.16v28.56
	c0,2.25-1.83,4.08-4.08,4.08H66.84c-2.25,0-4.08-1.83-4.08-4.08V83.16H54.6c-2.25,0-4.08-1.83-4.08-4.08V62.76z"/>
<g>
</g>
<g>
</g>
<g>
</g>
<g>
</g>
<g>
</g>
<g>
</g>
<g>
</g>
<g>
</g>
<g>
</g>
<g>
</g>
<g>
</g>
<g>
</g>
<g>
</g>
<g>
</g>
<g>
</g>
</svg>
