<?xml version="1.0" encoding="utf-8"?>
<!-- Generator: Adobe Illustrator 24.2.1, SVG Export Plug-In . SVG Version: 6.00 Build 0)  -->
<svg version="1.1" id="Layer_1" xmlns="http://www.w3.org/2000/svg" xmlns:xlink="http://www.w3.org/1999/xlink" x="0px" y="0px"
	 viewBox="0 0 22 16" style="enable-background:new 0 0 22 16;" xml:space="preserve">
<style type="text/css">
	.st0{fill:#869AB8;}
</style>
<g>
	<path class="st0" d="M21.53,1.41L17.32,1.4c0,0.15,0,0.34,0,0.46c0.36,0.01,1.27,0.18,1.56,0.93l-4.04,9.31
		c-0.2-0.46-2.07-4.63-2.29-5.17l1.95-4.05c0.4-0.62,1.17-1.01,1.92-1.04l0-0.42l-4.05,0c-0.01,0.11,0,0.33-0.01,0.45
		c1.14,0.03,1.55,0.29,1.28,0.97c-0.45,1.03-1.4,2.97-1.59,3.33c-0.58-1.21-0.95-2.15-1.58-3.46c-0.27-0.61,0.33-0.84,0.96-0.86
		V1.41L6.74,1.4c0,0.2,0,0.31,0,0.46c0.65,0.01,1.5,0.08,1.84,0.65c0.45,0.87,1.95,4.34,2.4,5.27c-0.58,1.11-1.98,3.73-2.48,4.71
		C7.77,10.9,5.1,4.6,4.35,2.98c-0.28-0.69,0.8-1.09,1.43-1.12l0-0.46l-5.34,0c0,0.14,0.01,0.37,0.01,0.47
		c0.87-0.01,2.13,1.41,2.49,2.3c1.56,3.62,3.17,7.21,4.72,10.83c0,0.01,0.49,0.01,0.49,0c1.01-2.08,2.2-4.26,3.27-6.36l2.7,6.36
		c0,0,0.45,0,0.45,0c1.71-3.91,4.28-9.92,5.12-11.82c0.34-0.81,0.91-1.3,1.84-1.33l0.01-0.42L21.53,1.41z"/>
</g>
<g>
</g>
<g>
</g>
<g>
</g>
<g>
</g>
<g>
</g>
<g>
</g>
<g>
</g>
<g>
</g>
<g>
</g>
<g>
</g>
<g>
</g>
<g>
</g>
<g>
</g>
<g>
</g>
<g>
</g>
</svg>
